# xmcd
#
# Track frame offsets:
#	150
#	21166
#	36916
#	53029
#
# Disc length: 992 seconds
#
# Revision: 0
# Processed by: cddbd v1.5.2PL0 Copyright (c) Steve Scherf et al.
# Submitted via: audiograbber 1.83.01
#
DISCID=2b03de04
DTITLE=Jakatta - Luuv [CDM-EP)
DYEAR=2007
DGENRE=Dance
TTITLE0=J‰‰n
TTITLE1=Pyyd‰n Ett‰ J‰‰t
TTITLE2=Viimeinen Hetki
TTITLE3=J‰‰n (Olavi Tanner Remix)
EXTD=TR.
EXTT0=
EXTT1=
EXTT2=
EXTT3=
PLAYORDER=
